:SAMPLES-PER-SECOND 25
:FULLY-SPECIFIED
:DEGREES
436
root  13.6261 66.6263 7.97808 -1.89369 0.127375 0.584059
RightUpLeg  -19.8022 0.732331 -0.417387
RightLeg  4.93372 6.39405 -1.89389
RightFoot  2.67062 -0.014087 0.263008
RightToes  2.84633e-005 7.89722e-005 -0.000426369
Spine  1.64351 -1.44924 0.906458
Spine1  3.23663 -2.89973 1.19908
HEad  22.9333 -7.12773 -4.48874
LeftShoulder1  -3.88251e-019 0 -3.92111e-022
LeftArm  -34.4468 -1.85772 -84.2821
LeftForeArm  28.9922 2.16456 -0.0147814
LeftHand  -0.789825 -4.5556 9.49581
RightShoulder  7.45443e-017 -2.42657e-020 1.96277e-018
RightArm  -28.8871 -20.1726 73.8468
RightForeArm  25.9643 7.95086 6.86349
RightHand  -1.14118 9.28227 -9.37924
LeftUpLeg  3.42092 0.242579 -4.14485
LeftLeg  10.1267 -4.96737 -1.08115
LeftFoot  -10.4713 -0.00294812 8.68367
LeftToes  3.91355e-005 3.11907e-005 -4.10385e-006
437
root  13.446 66.5381 9.13606 -1.847 -0.238953 0.590583
RightUpLeg  -18.2199 0.872645 -0.141973
RightLeg  3.33335 6.04994 -2.33973
RightFoot  3.10218 -0.108617 1.01409
RightToes  2.84633e-005 7.89722e-005 -0.000426369
Spine  1.51993 -1.3222 1.16271
Spine1  2.96528 -2.63776 1.50289
HEad  23.3731 -7.23209 -4.86322
LeftShoulder1  -3.88251e-019 0 -3.92111e-022
LeftArm  -34.6433 -1.26889 -84.8819
LeftForeArm  30.1867 2.13296 0.0540687
LeftHand  -0.799403 -4.50679 9.65123
RightShoulder  7.45443e-017 -2.42657e-020 1.96277e-018
RightArm  -29.1906 -20.2076 73.5112
RightForeArm  25.6505 7.48249 6.28644
RightHand  -1.15245 9.15878 -9.54269
LeftUpLeg  5.04781 0.122234 -4.04767
LeftLeg  10.7133 -4.39243 -0.805471
LeftFoot  -11.4991 0.0808764 8.49025
LeftToes  3.91355e-005 3.11907e-005 -4.10385e-006
438
root  13.2472 66.4771 10.4018 -1.86113 -0.931671 0.349457
RightUpLeg  -16.1909 0.891588 0.306824
RightLeg  3.0155 4.56159 -2.19432
RightFoot  4.53684 -0.306182 2.42024
RightToes  2.84633e-005 7.89722e-005 -0.000426369
Spine  1.33937 -1.14487 1.48302
Spine1  2.59101 -2.26342 2.08737
HEad  24.0375 -7.26166 -5.54293
LeftShoulder1  -3.88251e-019 0 -3.92111e-022
LeftArm  -35.0213 -0.364682 -85.1737
LeftForeArm  32.4108 2.04488 0.44376
LeftHand  -0.820046 -4.63616 9.77274
RightShoulder  7.45443e-017 -2.42657e-020 1.96277e-018
RightArm  -29.2164 -20.934 73.0184
RightForeArm  25.0061 7.78572 6.36126
RightHand  -1.19547 9.14786 -9.88986
LeftUpLeg  7.08017 -0.0970514 -3.75859
LeftLeg  10.9398 -3.49283 -0.385553
LeftFoot  -12.2601 0.138342 8.01891
LeftToes  3.91355e-005 3.11907e-005 -4.10385e-006
439
root  13.0211 66.4731 11.7215 -1.58103 -2.11025 -0.675271
RightUpLeg  -14.3876 1.48048 1.66545
RightLeg  2.92106 4.34905 -1.73664
RightFoot  4.9231 -0.272724 2.15096
RightToes  2.84633e-005 7.89722e-005 -0.000426369
Spine  0.987846 -0.866377 2.19867
Spine1  1.86931 -1.68463 3.41087
HEad  24.7552 -6.80066 -6.89241
LeftShoulder1  -3.88251e-019 0 -3.92111e-022
LeftArm  -35.9394 0.962852 -85.3469
LeftForeArm  35.5206 1.90553 1.13142
LeftHand  -0.806936 -4.69159 9.57071
RightShoulder  7.45443e-017 -2.42657e-020 1.96277e-018
RightArm  -29.0304 -21.8445 72.1034
RightForeArm  24.9512 8.17207 6.7305
RightHand  -1.1847 9.14243 -9.80789
LeftUpLeg  8.77802 -0.198017 -2.69119
LeftLeg  11.4056 -2.3639 0.0692812
LeftFoot  -12.7613 0.169457 7.47546
LeftToes  3.91355e-005 3.11907e-005 -4.10385e-006
440
root  12.7458 66.532 13.0265 -1.04938 -3.41032 -2.12116
RightUpLeg  -13.2023 2.54861 3.66455
RightLeg  3.71903 4.90051 -1.36296
RightFoot  3.12883 -0.0869548 0.842114
RightToes  2.84633e-005 7.89722e-005 -0.000426369
Spine  0.58518 -0.608439 3.17927
Spine1  1.03732 -1.11825 5.10739
HEad  25.4244 -5.91168 -8.48839
LeftShoulder1  -3.88251e-019 0 -3.92111e-022
LeftArm  -37.0475 2.78186 -85.6729
LeftForeArm  37.81 1.78866 1.84059
LeftHand  -0.791754 -4.38424 9.6759
RightShoulder  7.45443e-017 -2.42657e-020 1.96277e-018
RightArm  -28.7612 -22.1108 70.7969
RightForeArm  26.0243 7.90769 6.84015
RightHand  -1.1582 9.12071 -9.61192
LeftUpLeg  9.24243 -0.320722 -1.02187
LeftLeg  13.902 -1.2387 0.181619
LeftFoot  -12.8266 0.154134 5.9809
LeftToes  3.91355e-005 3.11907e-005 -4.10385e-006
441
root  12.4293 66.6202 14.2233 -0.812944 -4.20982 -3.05328
RightUpLeg  -11.8079 3.0544 5.10079
RightLeg  4.72472 5.26663 -0.984829
RightFoot  0.455015 -0.0456473 0.471678
RightToes  2.84633e-005 7.89722e-005 -0.000426369
Spine  0.444475 -0.506144 4.01919
Spine1  0.71069 -0.813588 6.25105
HEad  25.8616 -5.31223 -9.41693
LeftShoulder1  -3.88251e-019 0 -3.92111e-022
LeftArm  -37.4096 4.46317 -85.9488
LeftForeArm  37.8019 1.76429 2.2689
LeftHand  -0.758635 -4.08093 9.56264
RightShoulder  7.45443e-017 -2.42657e-020 1.96277e-018
RightArm  -28.4883 -21.6983 69.6747
RightForeArm  27.5917 7.26282 6.72612
RightHand  -1.17781 9.13649 -9.75733
LeftUpLeg  8.15252 0.915522 0.786163
LeftLeg  19.4921 -1.62069 -0.309244
LeftFoot  -12.1515 0.0991675 3.69231
LeftToes  3.91355e-005 3.11907e-005 -4.10385e-006
442
root  12.0922 66.6306 15.2386 -0.974126 -4.30952 -3.37688
RightUpLeg  -10.6479 2.87181 5.7469
RightLeg  6.40618 5.50725 -0.354991
RightFoot  -2.15821 -0.0452321 0.372681
RightToes  2.84633e-005 7.89722e-005 -0.000426369
Spine  0.586838 -0.554687 4.5797
Spine1  0.934441 -0.762145 6.6257
HEad  25.8722 -5.45356 -9.38741
LeftShoulder1  -3.88251e-019 0 -3.92111e-022
LeftArm  -36.8502 5.30382 -85.6785
LeftForeArm  36.2005 1.80866 2.34831
LeftHand  -0.711037 -4.18687 8.89018
RightShoulder  7.45443e-017 -2.42657e-020 1.96277e-018
RightArm  -28.1504 -21.2439 69.0812
RightForeArm  28.4253 7.05904 6.88529
RightHand  -1.20276 9.10977 -9.97194
LeftUpLeg  5.03709 3.34555 2.49027
LeftLeg  28.6986 -2.98049 -1.43075
LeftFoot  -9.38013 0.0250399 1.87923
LeftToes  3.91355e-005 3.11907e-005 -4.10385e-006
443
root  11.7707 66.5024 16.0789 -1.32781 -3.89175 -3.93066
RightUpLeg  -10.0851 2.91214 6.64375
RightLeg  8.99009 5.03787 0.160783
RightFoot  -4.48016 -0.00472675 -0.437921
RightToes  2.84633e-005 7.89722e-005 -0.000426369
Spine  0.906264 -0.673433 5.12646
Spine1  1.51954 -0.844287 6.95715
HEad  25.4077 -6.12467 -8.89266
LeftShoulder1  -3.88251e-019 0 -3.92111e-022
LeftArm  -36.1678 5.10186 -84.8278
LeftForeArm  34.7361 1.85836 2.17425
LeftHand  -0.766911 -4.44066 9.32493
RightShoulder  7.45443e-017 -2.42657e-020 1.96277e-018
RightArm  -27.606 -20.9038 68.8128
RightForeArm  28.0069 7.43454 7.42626
RightHand  -1.21797 9.18895 -10.0408
LeftUpLeg  -0.166233 5.06743 4.17351
LeftLeg  40.74 -2.82676 -2.21114
LeftFoot  -3.16469 0.00478066 0.295531
LeftToes  3.91355e-005 3.11907e-005 -4.10385e-006
444
root  11.5105 66.2783 16.8379 -2.03129 -3.2594 -4.97458
RightUpLeg  -9.42872 3.49691 8.17825
RightLeg  11.8521 3.43144 0.128249
RightFoot  -6.47471 0.0176158 -1.45292
RightToes  2.84633e-005 7.89722e-005 -0.000426369
Spine  1.43458 -0.7734 5.7677
Spine1  2.56033 -0.943715 7.6667
HEad  24.5655 -6.87277 -8.42302
LeftShoulder1  -3.88251e-019 0 -3.92111e-022
LeftArm  -35.9671 4.20243 -84.0071
LeftForeArm  33.8264 1.89898 1.83961
LeftHand  -0.915851 -4.43853 11.0797
RightShoulder  7.45443e-017 -2.42657e-020 1.96277e-018
RightArm  -27.0092 -20.0097 68.6316
RightForeArm  27.7702 7.41265 7.85619
RightHand  -1.24452 9.62869 -9.96849
LeftUpLeg  -6.1576 5.66128 5.70455
LeftLeg  52.5429 -0.656191 -0.386955
LeftFoot  2.57743 0.170591 -1.52108
LeftToes  3.91355e-005 3.11907e-005 -4.10385e-006
445
root  11.3087 66.1179 17.6148 -3.08116 -2.85026 -5.64985
RightUpLeg  -8.01994 3.88391 9.39165
RightLeg  13.9162 2.05624 -0.135854
RightFoot  -7.68141 0.0252848 -2.4241
RightToes  2.84633e-005 7.89722e-005 -0.000426369
Spine  2.04001 -0.760028 6.26193
Spine1  3.79719 -0.866657 8.15968
HEad  23.8678 -7.38805 -8.09914
LeftShoulder1  -3.88251e-019 0 -3.92111e-022
LeftArm  -35.9396 3.32921 -83.7959
LeftForeArm  32.503 1.96724 1.31678
LeftHand  -0.948409 -4.36863 11.5405
RightShoulder  7.45443e-017 -2.42657e-020 1.96277e-018
RightArm  -26.6995 -18.1739 68.5649
RightForeArm  29.4877 6.20124 7.74137
RightHand  -1.24965 10.0709 -9.73865
LeftUpLeg  -11.242 5.60218 6.22063
LeftLeg  60.3902 1.81004 4.08097
LeftFoot  2.18234 0.154399 -1.46724
LeftToes  3.91355e-005 3.11907e-005 -4.10385e-006
446
root  11.1412 66.1096 18.439 -4.03361 -2.92674 -5.55511
RightUpLeg  -6.13552 3.75736 9.73115
RightLeg  14.8526 1.95489 -0.1514
RightFoot  -7.95407 0.0424107 -3.2517
RightToes  2.84633e-005 7.89722e-005 -0.000426369
Spine  2.4316 -0.574523 6.39475
Spine1  4.65366 -0.53124 8.12325
HEad  24.1721 -7.61935 -7.98882
LeftShoulder1  -3.88251e-019 0 -3.92111e-022
LeftArm  -35.6705 2.89041 -84.1762
LeftForeArm  30.7957 2.05933 0.68003
LeftHand  -0.880872 -4.58417 10.5235
RightShoulder  7.45443e-017 -2.42657e-020 1.96277e-018
RightArm  -26.4857 -16.0419 68.7559
RightForeArm  31.9695 4.47948 7.05116
RightHand  -1.21854 10.0016 -9.54704
LeftUpLeg  -14.9287 5.07134 5.53374
LeftLeg  62.3909 3.63462 8.1366
LeftFoot  -2.29209 -0.125265 1.75796
LeftToes  3.91355e-005 3.11907e-005 -4.10385e-006
447
root  11.0207 66.1705 19.2877 -4.73278 -3.44612 -5.17463
RightUpLeg  -4.27735 3.56384 9.61658
RightLeg  15.3672 2.49853 0.0629627
RightFoot  -7.88887 0.0555714 -3.61158
RightToes  2.84633e-005 7.89722e-005 -0.000426369
Spine  2.61396 -0.215357 6.22595
Spine1  5.13076 0.025784 7.95188
HEad  25.5318 -7.7329 -8.12276
LeftShoulder1  -3.88251e-019 0 -3.92111e-022
LeftArm  -35.3134 2.68072 -84.7683
LeftForeArm  30.3073 2.12627 0.103367
LeftHand  -0.894843 -4.89221 10.381
RightShoulder  7.45443e-017 -2.42657e-020 1.96277e-018
RightArm  -26.5069 -14.4861 69.2644
RightForeArm  32.8495 3.45071 6.19353
RightHand  -1.21635 9.74677 -9.68086
LeftUpLeg  -17.4876 3.99545 4.48535
LeftLeg  59.2646 5.14745 9.82986
LeftFoot  -5.57389 -0.215341 4.85519
LeftToes  3.91355e-005 3.11907e-005 -4.10385e-006
